<?xml version="1.0" encoding="UTF-8"?>
<svg id="Capa_1" xmlns="http://www.w3.org/2000/svg" version="1.1" viewBox="0 0 12 12">
  <!-- Generator: Adobe Illustrator 29.0.0, SVG Export Plug-In . SVG Version: 2.1.0 Build 186)  -->
  <defs>
    <style>
      .st0 {
        fill: #171717;
        fill-rule: evenodd;
      }
    </style>
  </defs>
  <path class="st0" d="M2.2,1.9c.3,0,.6.2.6.5h0s-.2,0-.2,0h.2c0,0,.4,1.6.4,1.6l4.4-.9c2-.4,3.8.9,4.2,2.8,0,.2,0,.4,0,.7h0c0,.6-.5,1.1-1.1,1.1,0,0,0,0,0,0h-3.9l-.9,1.4h0c-.4.6-1,.9-1.7.9h-1c-.4,0-.7-.3-.7-.7,0-.1,0-.2,0-.3h.2c0,0-.2,0-.2,0l.6-1.3H1.2c-.6,0-1.1-.5-1.1-1.1,0,0,0,0,0,0V2.6c0-.4.3-.7.7-.7h1.5Z"/>
</svg>